<svg xmlns="http://www.w3.org/2000/svg" xmlns:xlink="http://www.w3.org/1999/xlink" viewBox="0 0 244.63 241.59">
  <defs>
    <style>
      .a, .b, .e {
        fill: none;
      }

      .b, .e {
        stroke: #fff;
      }

      .b {
        stroke-width: 2.2px;
      }

      .c {
        clip-path: url(#a);
      }

      .d {
        fill: #fff;
      }

      .e {
        stroke-width: 2px;
      }
    </style>
    <clipPath id="a" transform="translate(0 0)">
      <rect class="a" width="244.63" height="241.59"/>
    </clipPath>
  </defs>
  <g>
    <polygon class="b" points="41.2 39.49 41.2 199.67 203.43 199.67 203.43 39.49 170.63 39.49 41.2 39.49"/>
    <g class="c">
      <path class="d" d="M118.48,65.72a19.56,19.56,0,0,0-3.85-.39h0a12.66,12.66,0,0,0-1.8,14.23,20.84,20.84,0,0,1,5.68-13.84" transform="translate(0 0)"/>
      <path class="d" d="M116.15,76.39a17.67,17.67,0,0,0,0,7.29A12.7,12.7,0,0,0,133.84,82a19.36,19.36,0,0,0-3.91-9.25v.06a7.35,7.35,0,0,1-13.78,3.57" transform="translate(0 0)"/>
      <path class="d" d="M133.73,98a18,18,0,0,0,16.7-11.4A62,62,0,0,0,139,68.71a15.54,15.54,0,0,1-2.28,14.42,1.41,1.41,0,0,1-.27.37,15.67,15.67,0,0,1-18.77,4.63,18,18,0,0,0,16,9.87" transform="translate(0 0)"/>
      <path class="d" d="M136.08,78.18a12.67,12.67,0,0,0-6-15.71,17.67,17.67,0,0,0-5.48,2.16,22.39,22.39,0,0,1,11.52,13.55" transform="translate(0 0)"/>
      <path class="d" d="M151.57,82.07a19.41,19.41,0,0,0,.12-2,18,18,0,0,0-15.42-17.76c6.15,4.4,11.38,11.73,15.3,19.79" transform="translate(0 0)"/>
      <path class="d" d="M133.73,101a20.31,20.31,0,0,1-3.76-.36A24.12,24.12,0,0,1,116.3,107c6.76,9.17,12.65,19,16,26.87,1.58-2.24,3.34-4.53,5.24-6.81a86.54,86.54,0,0,1,14.12-13.87,28.54,28.54,0,0,1,4.63-2.87,63.72,63.72,0,0,0-4.32-20A21,21,0,0,1,133.73,101" transform="translate(0 0)"/>
      <path class="d" d="M163.59,110.24a21.37,21.37,0,0,1,5.67,8.28A54.65,54.65,0,0,0,172,90.05c-.62-3.69-2-8.31-5.14-9.35s-7.56,1.2-13.12,6.35a72.34,72.34,0,0,1,5.47,22.29,5,5,0,0,1,4.34.9" transform="translate(0 0)"/>
      <path class="d" d="M154.85,139.76a55,55,0,0,0,12.68-17.18c-1.24-4.3-3.32-7.92-5.86-10a1.81,1.81,0,0,0-1.18-.36,5.86,5.86,0,0,0-2,.44,1.41,1.41,0,0,1-.46.17C154,114.54,147.29,120,139.84,129a102.49,102.49,0,0,0-6.53,8.68,1.34,1.34,0,0,1-.25.37c-5.13,7.76-7,13.44-5.62,15.18a54.6,54.6,0,0,0,27.4-13.48h0" transform="translate(0 0)"/>
      <path class="d" d="M124.42,148.9a26.6,26.6,0,0,1,2-5.41,64.72,64.72,0,0,1,3.79-6.6c-5.49-14.35-20.3-35.27-32.67-46.95-3.66,9.21-5.85,18.77-5.85,25.62a33.11,33.11,0,0,0,10,23.17,45.1,45.1,0,0,0,20.46,10,18.23,18.23,0,0,0,2.25.21" transform="translate(0 0)"/>
      <path class="d" d="M164.53,146.39c3.79-5.71,4.79-12.78,4-19.13a59.58,59.58,0,0,1-3.49,5.53,58.54,58.54,0,0,1-6.78,7.9,58.9,58.9,0,0,1,6.3,5.7" transform="translate(0 0)"/>
      <path class="d" d="M126.93,72.82a4.36,4.36,0,1,0-4.36,4.36,4.36,4.36,0,0,0,4.36-4.36" transform="translate(0 0)"/>
      <path class="d" d="M125.71,155.78a5.11,5.11,0,0,1-1.66-3.67c-.88-.17-1.54-.27-2-.37l-.68-.08L121,155s0,0,0,0l-.16,1.49-3-.32.44-4.14.09-.87a34.14,34.14,0,0,1-4-1.09,36.25,36.25,0,0,1-4.13,2.2,28.77,28.77,0,0,0-.09,8.12A66.85,66.85,0,0,0,129,157.87a16.85,16.85,0,0,1-3.31-2.09" transform="translate(0 0)"/>
      <path class="d" d="M110.6,163.4A104,104,0,0,0,115,180c3.66-3.3,12.48-11.78,15.8-19.5a70.24,70.24,0,0,1-19.89,2.93h-.29" transform="translate(0 0)"/>
      <path class="d" d="M164.73,151c-5.21,5.79-12.46,8.66-19.5,9.36,12,3.5,26.19,6.37,32.64,7.6a173.25,173.25,0,0,0-13.14-17" transform="translate(0 0)"/>
      <path class="d" d="M162.68,148.81a54.1,54.1,0,0,0-6.7-6,55.58,55.58,0,0,1-6.87,5.17l2.91,1.87.09.07,1.17.75-.81,1.25-.82,1.27-4.49-2.89-.91-.59a57.3,57.3,0,0,1-14.71,5.76c.71.34,1.47.68,2.27,1l.09,0,.39.16c8.67,2.27,21.1.43,28.39-7.84" transform="translate(0 0)"/>
      <path class="d" d="M101.56,142.64l-8.73,4.69,0,0L91.5,148l-1.42-2.64,9-4.86a63.76,63.76,0,0,1-9.07-8.29,82,82,0,0,0-9.75,10,22.93,22.93,0,0,0,10.34,13.64,138.17,138.17,0,0,0,17.65-6l.15-.06c.86-.39,2.35-1.07,3.1-1.46a58.26,58.26,0,0,1-10-5.74" transform="translate(0 0)"/>
      <path class="d" d="M92,129.87a34.1,34.1,0,0,1-3.21-14.31c0-7.71,2.48-18.13,6.43-27.81-.64-.55-1.26-1.07-1.88-1.56a1.49,1.49,0,0,1-.89-.7c-3.69-2.8-6.94-4.39-9.35-4.24-1.13.07-2.71.56-3.5,4-3.12,13.61,0,27.78,8.64,39.92a56.9,56.9,0,0,0,3.76,4.7" transform="translate(0 0)"/>
      <path class="d" d="M98.8,87.07a134.5,134.5,0,0,1,15.35,17.09,20.89,20.89,0,0,0,12.33-4.48,21,21,0,0,1-13-14.36,15.59,15.59,0,0,1-4.65-15.15,70.82,70.82,0,0,0-10,16.9" transform="translate(0 0)"/>
      <path class="d" d="M98.84,79.82a61.87,61.87,0,0,1,9.09-13.28A19.44,19.44,0,0,0,95.24,84c.37.29.75.6,1.13.92.78-1.76,1.6-3.48,2.47-5.13" transform="translate(0 0)"/>
      <path class="d" d="M107.07,153.67c-3.65,1.47-7.89,2.88-12.29,4.19a44.44,44.44,0,0,0,12.39,2.44,35.25,35.25,0,0,1-.1-6.63" transform="translate(0 0)"/>
      <path class="d" d="M79.46,138.67a78.14,78.14,0,0,1,8.65-8.7c-.81-1-1.61-2-2.35-3a57.5,57.5,0,0,1-4.87-8.11,44.43,44.43,0,0,0-1.43,19.86" transform="translate(0 0)"/>
      <path class="d" d="M78.07,145c-5.23,6.44-10.08,13.25-12.73,17.06,4.57-1,12.88-2.79,21.47-5.08a25.58,25.58,0,0,1-8.74-12" transform="translate(0 0)"/>
    </g>
    <polyline class="e" points="11.77 226.62 11.77 230.96 71.29 230.96"/>
    <g>
      <path class="d" d="M.43,21.47v3.16H20.1v.07L.43,37.79v3.39H25.48V38H5.81V38l19.67-13.1v-3.4ZM22.51,46.05v15.4H14V47.59h-3V61.45H3.4V46.63h-3V64.76H25.48V46.05ZM.43,71.15v4.41l17.43,6c1.71.58,3.05,1,4,1.33v.07c-.51.1-1.74.48-3.71,1.14L.43,90v5H25.48V91.83H4.17v-.11l21.31-7.17v-3l-21-7.21v-.07h21V71.15Zm0,30.16v4.41l17.43,6c1.71.58,3.05,1,4,1.33v.07c-.51.11-1.74.49-3.71,1.15L.43,120.18v4.95H25.48V122H4.17v-.1l21.31-7.18v-3l-21-7.22v-.06h21v-3.15Zm14.8,43.74-7.51-2.8A28,28,0,0,0,3,141v-.09c1.23-.32,2.22-.61,3-.87s3.81-1.42,9.24-3.47Zm-14.8-6v3.57l25.05,9.62v-3.5L17.86,146V135.53l7.62-2.94v-3.74Zm7.09,16.3A7,7,0,0,0,2,158.06a10.66,10.66,0,0,0-2,6.71,9.72,9.72,0,0,0,2,6.42,6.19,6.19,0,0,0,5,2.36,5.52,5.52,0,0,0,4.31-1.86,13.64,13.64,0,0,0,2.57-6.1,26.41,26.41,0,0,1,1.85-6,3.15,3.15,0,0,1,3-1.79,3.56,3.56,0,0,1,3.11,1.71A8,8,0,0,1,22.92,164a9,9,0,0,1-1.38,5.07,5.38,5.38,0,0,1-4.38,2.33l.27,3.14a8.32,8.32,0,0,0,6.12-2.78c1.57-1.74,2.36-4.38,2.36-7.9a10.13,10.13,0,0,0-2.14-6.71,6.69,6.69,0,0,0-5.36-2.57,5.76,5.76,0,0,0-4.06,1.4,8.54,8.54,0,0,0-2.23,3.37,39.5,39.5,0,0,0-1.4,5.07,16.75,16.75,0,0,1-1.59,4.75,2.68,2.68,0,0,1-2.41,1.24,3.07,3.07,0,0,1-2.79-1.61,8,8,0,0,1-1-4.17,6.92,6.92,0,0,1,1.21-4.36,4.9,4.9,0,0,1,3.6-1.73Zm-7.09,24v3.33H14.87a17.27,17.27,0,0,1,4.35.45,4.6,4.6,0,0,1,2.69,1.91,7.84,7.84,0,0,1,1,4.4,6.14,6.14,0,0,1-1.27,4.27,5.32,5.32,0,0,1-2.89,1.71,20.83,20.83,0,0,1-3.89.32H.43v3.32H14.92a26,26,0,0,0,3.93-.27,9.19,9.19,0,0,0,3.38-1.22,6.92,6.92,0,0,0,2.65-3,12,12,0,0,0,1-5.4,11.19,11.19,0,0,0-1.16-5.49,7.16,7.16,0,0,0-2.88-3,10,10,0,0,0-3.38-1.12,26.31,26.31,0,0,0-3.57-.22Zm22.08,23.72v16l-1.8-1.5L3.4,203.55h-3V221.5h3v-14c.53.52,1.14,1.09,1.86,1.69s1.08.91,1.11.91l16,12.83h3.11V203.12Z" transform="translate(0 0)"/>
      <path class="d" d="M174.17,9.37a2.19,2.19,0,0,1,1.73.82,3.07,3.07,0,0,1,.71,2.08,2.82,2.82,0,0,1-.9,2.18,3.27,3.27,0,0,1-2.31.83,4.39,4.39,0,0,1-2.63-1q1.24-4.94,3.4-4.93m-9.28,9.24h.9c1.8,0,3.05-.47,3.75-1.4a4.9,4.9,0,0,0,3.67,1.4A6.58,6.58,0,0,0,177.76,17a6,6,0,0,0,1.83-4.71A6.47,6.47,0,0,0,178,7.85a4.94,4.94,0,0,0-3.83-1.8,4.6,4.6,0,0,0-3.6,1.6,13.72,13.72,0,0,0-2.47,5.25,3.89,3.89,0,0,1-.94,1.84,2.18,2.18,0,0,1-1.54.54h-.73ZM151.1,7.93c0-1,1.31-1.5,3.94-1.5s4,.51,4,1.53-1.45,2.45-4.34,3.9q-3.57-3-3.57-3.93M158.86,18a12.08,12.08,0,0,0,3.93.63H165V15.28h-2.43a16.39,16.39,0,0,1-3-.27,7,7,0,0,1-3.1-1.61c.31-.23.67-.47,1.1-.74A13.13,13.13,0,0,0,161,9.75,4.23,4.23,0,0,0,162,7.23a3.36,3.36,0,0,0-2.12-3A10.12,10.12,0,0,0,155,3.11a10.44,10.44,0,0,0-4.71,1.09,3.3,3.3,0,0,0-2.21,3,4.46,4.46,0,0,0,.63,2.1,19.48,19.48,0,0,0,3.59,3.9,9.77,9.77,0,0,0-3.64,3A6.45,6.45,0,0,0,147.39,20a7.1,7.1,0,0,0,2.8,5.88,11.85,11.85,0,0,0,7.52,2.21,25.05,25.05,0,0,0,7.59-1.2l-.53-3.18a29.34,29.34,0,0,1-7.09,1,9.87,9.87,0,0,1-5.44-1.24A4,4,0,0,1,150.36,20c0-2,1.22-3.7,3.64-5.18A17.05,17.05,0,0,0,158.86,18m-24.21,2.49h-3v3.05h3Zm1-11.81h-3v3.13q0,3.5-2.58,3.49h-1.27v3.33H130a5.53,5.53,0,0,0,4.31-1.54q1.4-1.53,1.4-5.21Zm-21.07.64q0-1.58,4.55-1.58t4.59,1.61q0,1-4.59,3.83-4.55-2.86-4.55-3.86m14.32,6h-4.2a8.23,8.23,0,0,1-3.27-.7,21.79,21.79,0,0,0,3.73-3.33,4.7,4.7,0,0,0,1.38-2.76,3.36,3.36,0,0,0-2.24-3,11.47,11.47,0,0,0-5.17-1.11A11.19,11.19,0,0,0,114,5.51c-1.52.77-2.28,1.79-2.28,3.05q0,2.26,5,6.07a7.44,7.44,0,0,1-3.21.65h-4.2v3.33h4.13a9.4,9.4,0,0,0,5.63-2.34,9.38,9.38,0,0,0,5.64,2.34h4.13ZM90.72,0h-3V3h3Zm9.91,6.65a3.52,3.52,0,0,1,2.61,1.17,3.83,3.83,0,0,1,1.13,2.74c0,1.47-.85,2.62-2.54,3.46A15.52,15.52,0,0,1,95,15.28H91.07q6.12-8.62,9.56-8.63m8.88,8.63h-1.26a2.16,2.16,0,0,1-2-1,6.61,6.61,0,0,0,1.11-3.78,7.17,7.17,0,0,0-1.92-5.12,6.33,6.33,0,0,0-4.79-2c-1.51,0-3.22.83-5.15,2.49s-4.3,4.63-7.11,8.93c-.86-.3-1.4-1.15-1.6-2.57l-2.91.74c.09,1.66.14,2.7.14,3.11q0,7.22-7.88,7.21-7.49,0-7.48-4.48a22.41,22.41,0,0,1,.56-4.61l-2.8-.7a23.77,23.77,0,0,0-.74,5.35,6.74,6.74,0,0,0,2.7,5.78q2.7,2,7.76,2t7.93-2.36A8.37,8.37,0,0,0,87,17.81a3.65,3.65,0,0,0,2.41.8H95a16.91,16.91,0,0,0,8.78-2v0q1.24,2,4.62,2h1.12Z" transform="translate(0 0)"/>
      <path class="d" d="M241.46,201.05V209a5.81,5.81,0,0,1-1.2,4.12,3.9,3.9,0,0,1-2.91,1.25,4,4,0,0,1-2.37-.75,3.65,3.65,0,0,1-1.43-2,12.79,12.79,0,0,1-.37-3.41v-7.11ZM226,215.44a11.44,11.44,0,0,0,4.56-4.72h.07a9.09,9.09,0,0,0,2.19,5.23,6,6,0,0,0,4.56,1.8,7.26,7.26,0,0,0,3-.63,6,6,0,0,0,2.35-1.78,6.18,6.18,0,0,0,1.23-2.7,21.41,21.41,0,0,0,.29-3.81V197.74H219.15v3.31h11.06v3.83a8.55,8.55,0,0,1-.26,2.33,4.61,4.61,0,0,1-1.22,1.88,14.15,14.15,0,0,1-2.31,1.91c-.9.6-3.33,2.15-7.27,4.65v4.17Zm-3.84-22.59v-15.4h8.47v13.86h3V177.45h7.65v14.82h3V174.14H219.15v18.71Zm22.08-25.18v-3.33H233.92v-13h10.29V148H219.15v3.31h11.79v13H219.15v3.33Zm0-23.84V124h-3v8.22H219.15v3.33h22.08v8.29Zm-22.08-23.29v-15.4h8.47V119h3V105.14h7.65V120h3V101.83H219.15v18.71Zm9.81-24.64V85.31h-3v7.38H224.3a11.82,11.82,0,0,1-2.58-7.31,10.18,10.18,0,0,1,1.13-4.78,7.5,7.5,0,0,1,3.36-3.32,12.41,12.41,0,0,1,5.57-1.12A11,11,0,0,1,239,78.47c1.84,1.54,2.77,3.82,2.77,6.84A7.71,7.71,0,0,1,240.44,90a7.05,7.05,0,0,1-4.06,2.51l.84,3a9.24,9.24,0,0,0,5.56-3.45,11.24,11.24,0,0,0,1.85-6.77A13.19,13.19,0,0,0,243,78.43a10.75,10.75,0,0,0-4.75-4.26,15.39,15.39,0,0,0-6.62-1.44,12.1,12.1,0,0,0-12.85,12.82,15.86,15.86,0,0,0,3.93,10.35Zm-7.69-45.45a10.3,10.3,0,0,1,7.05-2.37q5.34,0,7.92,2.43a8.11,8.11,0,0,1,2.58,6.18,7.89,7.89,0,0,1-2.64,6.08c-1.75,1.61-4.26,2.42-7.51,2.42s-5.64-.81-7.42-2.39a8.45,8.45,0,0,1,0-12.35M241.09,48q-3.56-3.35-9.72-3.35a12.94,12.94,0,0,0-9,3.3,11.15,11.15,0,0,0-3.67,8.72,11.33,11.33,0,0,0,3.54,8.59,13,13,0,0,0,9.38,3.37,13.21,13.21,0,0,0,9.41-3.35,11.27,11.27,0,0,0,3.57-8.61A11.36,11.36,0,0,0,241.09,48m3.12-5.34V22.81h-3V31H219.15v3.34h22.08v8.28Z" transform="translate(0 0)"/>
      <path class="d" d="M158,238.16h-3v-7.69q0-5.37-2.34-7.46t-7.72-2.08a48.51,48.51,0,0,0-6.28.45l.59,3.47a37.41,37.41,0,0,1,5.65-.49c2.56,0,4.34.43,5.37,1.31s1.53,2.51,1.53,4.91v7.58H138.65v3.43H158Zm-25-10.82c0-4.27-1.83-6.41-5.47-6.41a14.07,14.07,0,0,0-3.58.38l.53,3.46a8.42,8.42,0,0,1,2.27-.41,3,3,0,0,1,2.38.79,4.26,4.26,0,0,1,.67,2.71v3.67H133Zm-13.9,3.13q0-5.37-2.34-7.46c-1.55-1.39-4.13-2.08-7.72-2.08a63.18,63.18,0,0,0-7.65.45v20.21h3.2v-17c1.77-.18,3.25-.26,4.41-.26,2.56,0,4.34.43,5.36,1.31s1.54,2.51,1.54,4.91v11h3.2Zm-23.25-9.09H77.94v3.43H89.66v16.78h3.18V224.81h3Z" transform="translate(0 0)"/>
    </g>
    <polyline class="e" points="164.84 230.96 232.87 230.96 232.87 223.24"/>
    <path class="e" d="M59.39,9.86H11.77v5.05M232.87,19V9.86H186.66" transform="translate(0 0)"/>
  </g>
</svg>
