<svg xmlns="http://www.w3.org/2000/svg" viewBox="0 0 124.59 125.42">
  <defs>
    <style>
      .a {
        fill: #1d1d1b;
      }
    </style>
  </defs>
  <path class="a" d="M74.53,0A20.79,20.79,0,0,1,95.29,20.76a20.21,20.21,0,0,1-.15,2.36l0,.48.37-.3c4.08-3.26,7.69-4.91,10.72-4.91a7.58,7.58,0,0,1,2.4.37c3.57,1.19,5.93,5.07,7,11.55a57.35,57.35,0,0,1-4.27,33.12l0,.06,0,.07a33.73,33.73,0,0,1,.92,5.39,30.35,30.35,0,0,1-5,20.28l-.09.13.11.12A178.49,178.49,0,0,1,123,110.11l1.6,2.5-2.92-.52c-1.24-.21-30.46-5.39-46.58-11.71l-.2-.08-.06.2c-3.66,11-18.27,23.24-18.89,23.76l-1.39,1.16-.65-1.69A107.08,107.08,0,0,1,48.53,104l0-.16h-.16A47.21,47.21,0,0,1,34,101a27.21,27.21,0,0,1-2.83-1.3l-.08,0-.07,0c-13.65,3.81-27.41,6.46-28,6.57l-3,.59,1.72-2.58c.32-.48,8-11.9,16.26-21.89L18,82.3l0-.1c-.18-.74-.33-1.42-.45-2.08a47.48,47.48,0,0,1,2.52-24.59A1.23,1.23,0,0,1,20.5,55l.12-.1-.05-.14c-4.05-10-5.07-20.18-3-29.4,1.11-4.85,3.91-6,6.06-6.17h.43c2.41,0,5.43,1.22,9,3.63l.27.19,0-.33A22.21,22.21,0,0,1,61.9,4.21l.1,0,.08-.06A20.6,20.6,0,0,1,74.53,0m18,23.5.08-.69a19.12,19.12,0,0,0,.13-2,18.23,18.23,0,0,0-15.61-18l-.14.36c7.18,5.12,12.25,13.55,15.24,19.72l.3.62m-15.62-4,.2-.55a12.77,12.77,0,0,0,.82-4.49A13,13,0,0,0,71.17,3.12l.12-.24L70.88,3a17.81,17.81,0,0,0-5.63,2.21l-.32.19.33.16A22.19,22.19,0,0,1,76.68,19l.18.56m-23.45.85.38-.08A20.69,20.69,0,0,1,59.42,6.57l.24-.26-.35-.07a19.69,19.69,0,0,0-3.9-.39H55.3l-.06.06-.14.15-.22.24A13,13,0,0,0,52,14.48a12.77,12.77,0,0,0,1.43,5.89M37.27,26l.11-.24A69.9,69.9,0,0,1,48.9,7.38l-.21-.32A19.56,19.56,0,0,0,35.83,24.74v.1l.08.06c.38.3.77.62,1.15.94l.21.17m26.1-7.91a4.56,4.56,0,1,0-4.56-4.56,4.56,4.56,0,0,0,4.56,4.56M64.93,30a15.4,15.4,0,0,1-6.33-1.36l-.52-.24.26.51a18.12,18.12,0,0,0,33.12-1.69l0-.08,0-.07A65.53,65.53,0,0,0,80.07,9.52l-.34.2a15.45,15.45,0,0,1-2.35,14,1.47,1.47,0,0,1-.26.34A15.46,15.46,0,0,1,64.93,30m-10.09,15H55A21.22,21.22,0,0,0,67.4,40.55l.28-.22-.34-.12A20.8,20.8,0,0,1,54.46,26v-.06l-.05,0a15.4,15.4,0,0,1-4.57-15.07l-.35-.18a70.7,70.7,0,0,0-10.15,17l-.06.14.11.09A133.87,133.87,0,0,1,54.78,45l.06.08M63.37,20.7A7.17,7.17,0,0,1,57.12,17l-.27-.47-.1.53a17.58,17.58,0,0,0-.38,3.69,18.23,18.23,0,0,0,.37,3.68l0,.07.05,0a12.9,12.9,0,0,0,18-1.7l.06-.07V22.7a19.74,19.74,0,0,0-4-9.35L70.52,13v.58a7.17,7.17,0,0,1-7.15,7.16M99.85,50.29l.22,0a7.53,7.53,0,0,1,1.3-.13,4.42,4.42,0,0,1,2.89,1,21.16,21.16,0,0,1,5.61,8.12l.19.46.18-.47A55.06,55.06,0,0,0,113,30.74c-.91-5.45-2.68-8.65-5.27-9.51a5.27,5.27,0,0,0-1.61-.25c-3,0-7,2.24-11.71,6.64l-.1.1,0,.12a73,73,0,0,1,5.45,22.23v.22M30.08,66.6l.36-.16a47.83,47.83,0,0,1-.7-10.16c0-7.57,2.4-17.93,6.43-27.72l.06-.13-.11-.1c-.62-.54-1.26-1.07-1.9-1.57l0,0h0a1.26,1.26,0,0,1-.79-.62l0,0,0,0c-3.74-2.83-6.82-4.27-9.13-4.27h-.35c-1.19.07-2.87.59-3.69,4.16C17.26,38.49,20.65,53,29.43,65.7l.39.54.26.36M65.26,90.3l0-.19C66,86.94,68,82.66,71.23,77.74l.06-.08,0-.1c-5.34-14-20.06-35.12-32.8-47.12l-.21-.2-.11.27c-3.68,9.25-5.79,18.64-5.79,25.77,0,8,0,13.24,7,20.46l.78.81c.48.5.94,1,1.43,1.44A51.05,51.05,0,0,0,65.07,90.27l.19,0m9.27-48.78a20.45,20.45,0,0,1-3.73-.36h-.1l-.07.07a24,24,0,0,1-13.56,6.32l-.34,0,.2.28c6.91,9.37,12.73,19.16,16,26.86l.14.33.21-.29c7.59-10.74,17.42-20.4,23.9-23.5l.12-.06v-.13A61.13,61.13,0,0,0,93,30.85l-.16-.4-.2.38A20.82,20.82,0,0,1,74.53,41.52M68.15,94.17l.12,0A55.31,55.31,0,0,0,108.5,63.32l0-.07,0-.07c-1.27-4.37-3.37-8-5.93-10.07a1.9,1.9,0,0,0-1.25-.38c-1.65,0-4.22,1.23-7.24,3.46a83.86,83.86,0,0,0-13.62,13.4,101.07,101.07,0,0,0-6.56,8.74,1.69,1.69,0,0,1-.23.34c-4.91,7.43-7.11,13.47-5.61,15.41l.07.09m-48-14.33.27-.31a73.28,73.28,0,0,1,9.08-9l.16-.12-.12-.16c-.85-1.1-1.58-2.09-2.23-3a66.51,66.51,0,0,1-5.1-8.78L22,58l-.15.47a44.86,44.86,0,0,0-1.77,21l.08.41m85.22,7.58.14-.2c4.43-6.65,4.5-14.15,4.15-18,0-.44-.09-.88-.15-1.31l-.07-.6-.3.53A58,58,0,0,1,98.86,81.24l-.17.17.18.14a57.25,57.25,0,0,1,6.31,5.69l.17.18M31.43,96.87l.09,0c9.61-2.72,16.56-5.31,20.65-7.68l.32-.19-.34-.17a58.6,58.6,0,0,1-9.5-5.7l-.1-.08-.11.06-10,5.41L31.15,86.2,40,81.43l.24-.13-.2-.19L39.94,81l-.21-.19a67.92,67.92,0,0,1-8.34-8.28l-.12-.15-.16.12A78.25,78.25,0,0,0,21,82.88l-.07.09,0,.1A22.9,22.9,0,0,0,31.36,96.82l.07.05M93.8,91.4l-1.41,2.19L87.13,90.2l-.1-.06-.11.06A57.84,57.84,0,0,1,72.28,96l-.54.13.5.24c.68.33,1.42.66,2.29,1l.08,0,.48.2,0,0h0a29,29,0,0,0,7.21.88c1,0,2,0,3-.14,4.31-.4,12.4-2.07,18.23-8.7l.12-.14-.13-.13a54.47,54.47,0,0,0-6.74-6.07l-.13-.1-.12.11a57.64,57.64,0,0,1-6.85,5.16l-.26.17.26.16,4,2.59M5.68,103.08l.49-.1c4.28-.89,12.77-2.74,21.51-5.08l.39-.11-.33-.24a25.36,25.36,0,0,1-8.69-11.9l-.12-.33-.22.27C13.39,92.15,8.44,99.11,6,102.67l-.29.41m46-1.76a67.28,67.28,0,0,0,18.15-2.53l.5-.14-.47-.23a17.85,17.85,0,0,1-3.24-2.07,4.62,4.62,0,0,1-1.57-3.3V92.9l-.16,0c-.89-.14-1.78-.32-2.66-.53l-.22,0,0,.22L61.43,97l-2.58-.32.6-4.88,0-.17-.16-.05c-1.44-.43-2.71-.87-3.88-1.33l-.1,0-.09.06A30.92,30.92,0,0,1,51,92.68l-.09,0,0,.1a29,29,0,0,0-.12,8.32l0,.18h.88M119.11,109l-.28-.4a173.92,173.92,0,0,0-13.16-17l-.15-.17-.15.17c-4.66,5.18-11.54,8.48-19.36,9.29l0,.39c11.73,3.44,25.5,6.24,32.66,7.61l.48.09m-70.93-7.75,0-.23a36,36,0,0,1-.09-6.68l0-.33-.31.13c-3.34,1.39-7.46,2.82-12.27,4.27l-.57.17.56.21A44.29,44.29,0,0,0,48,101.22h.23m3.51,2.69h-.53l0,.24a104.52,104.52,0,0,0,4.38,16.6l.1.29.22-.2c3.66-3.3,12.52-11.8,15.86-19.58l.16-.39-.41.12a69.58,69.58,0,0,1-19.82,2.93"/>
</svg>
